# xmcd
#
# Track frame offsets:
# 150
# 27266
# 42348
#
# Disc length: 860 seconds
#
# Revision: 0
# Processed by: cddbd v1.4PL0 Copyright (c) Steve Scherf et al.
# Submitted via: Audion 2.6.0 (http://www.panic.com/audion/)
#
DISCID=1d035a03
DTITLE=Several - Line Dance Opvisning 3
DYEAR=1900
DGENRE=
TTITLE0=Ballymore Boys-Hot Love-Hot Potato
TTITLE1=Little Red RidingHood
TTITLE2=Chill Factor - Mony Mony
EXTD=
EXTT0=
EXTT1=
EXTT2=
PLAYORDER=
